<mxfile host="Electron" modified="2024-05-22T13:35:53.671Z" agent="Mozilla/5.0 (Macintosh; Intel Mac OS X 10_15_7) AppleWebKit/537.36 (KHTML, like Gecko) draw.io/21.2.8 Chrome/112.0.5615.165 Electron/24.2.0 Safari/537.36" etag="ayYc-ZICcvmjHKEZPMz9" version="21.2.8" type="device" pages="2">
  <diagram id="C_1VnN1tqUeuRe0OVdnl" name="페이지-5">
    <mxGraphModel dx="1421" dy="1939" grid="1" gridSize="10" guides="1" tooltips="1" connect="1" arrows="1" fold="1" page="1" pageScale="1" pageWidth="827" pageHeight="1169" math="0" shadow="0">
      <root>
        <mxCell id="0" />
        <mxCell id="1" parent="0" />
        <mxCell id="AIo1v6YMKxO04zc8rest-10" value="&lt;span style=&quot;font-size: 13px;&quot;&gt;Availability zone A&lt;/span&gt;" style="sketch=0;outlineConnect=0;gradientColor=none;html=1;whiteSpace=wrap;fontSize=13;fontStyle=1;shape=mxgraph.aws4.group;grIcon=mxgraph.aws4.group_availability_zone;strokeColor=#545B64;fillColor=none;verticalAlign=top;align=left;spacingLeft=30;fontColor=#545B64;dashed=1;" parent="1" vertex="1">
          <mxGeometry x="50" y="-110" width="320" height="250" as="geometry" />
        </mxCell>
        <mxCell id="AIo1v6YMKxO04zc8rest-2" value="&lt;span style=&quot;font-size: 13px;&quot;&gt;Region&lt;/span&gt;" style="points=[[0,0],[0.25,0],[0.5,0],[0.75,0],[1,0],[1,0.25],[1,0.5],[1,0.75],[1,1],[0.75,1],[0.5,1],[0.25,1],[0,1],[0,0.75],[0,0.5],[0,0.25]];outlineConnect=0;gradientColor=none;html=1;whiteSpace=wrap;fontSize=13;fontStyle=1;container=1;pointerEvents=0;collapsible=0;recursiveResize=0;shape=mxgraph.aws4.group;grIcon=mxgraph.aws4.group_region;strokeColor=#147EBA;fillColor=none;verticalAlign=top;align=left;spacingLeft=30;fontColor=#545B64;dashed=1;" parent="1" vertex="1">
          <mxGeometry x="-200" y="-180" width="640" height="720" as="geometry" />
        </mxCell>
        <mxCell id="AIo1v6YMKxO04zc8rest-3" value="&lt;span style=&quot;font-size: 13px;&quot;&gt;&lt;font style=&quot;font-size: 13px;&quot;&gt;VPC&lt;br style=&quot;font-size: 13px;&quot;&gt;10.0.0.0/16&lt;/font&gt;&lt;/span&gt;" style="points=[[0,0],[0.25,0],[0.5,0],[0.75,0],[1,0],[1,0.25],[1,0.5],[1,0.75],[1,1],[0.75,1],[0.5,1],[0.25,1],[0,1],[0,0.75],[0,0.5],[0,0.25]];outlineConnect=0;gradientColor=none;html=1;whiteSpace=wrap;fontSize=13;fontStyle=1;container=1;pointerEvents=0;collapsible=0;recursiveResize=0;shape=mxgraph.aws4.group;grIcon=mxgraph.aws4.group_vpc;strokeColor=#248814;fillColor=none;verticalAlign=top;align=left;spacingLeft=30;fontColor=#545B64;dashed=0;" parent="AIo1v6YMKxO04zc8rest-2" vertex="1">
          <mxGeometry x="40" y="40" width="560" height="660" as="geometry" />
        </mxCell>
        <mxCell id="AIo1v6YMKxO04zc8rest-53" value="&lt;span style=&quot;font-size: 13px;&quot;&gt;Availability zone B&lt;/span&gt;" style="sketch=0;outlineConnect=0;gradientColor=none;html=1;whiteSpace=wrap;fontSize=13;fontStyle=1;shape=mxgraph.aws4.group;grIcon=mxgraph.aws4.group_availability_zone;strokeColor=#545B64;fillColor=none;verticalAlign=top;align=left;spacingLeft=30;fontColor=#545B64;dashed=1;" parent="AIo1v6YMKxO04zc8rest-3" vertex="1">
          <mxGeometry x="210" y="380" width="320" height="250" as="geometry" />
        </mxCell>
        <mxCell id="AIo1v6YMKxO04zc8rest-41" value="Local Router" style="outlineConnect=0;dashed=0;verticalLabelPosition=middle;verticalAlign=middle;align=left;html=1;shape=mxgraph.aws3.router;fillColor=#F58534;gradientColor=none;labelPosition=right;fontColor=#545B64;fontSize=13;fontStyle=1" parent="AIo1v6YMKxO04zc8rest-3" vertex="1">
          <mxGeometry x="336" y="305" width="50" height="50" as="geometry" />
        </mxCell>
        <mxCell id="AIo1v6YMKxO04zc8rest-27" value="IGW" style="outlineConnect=0;dashed=0;verticalLabelPosition=top;verticalAlign=bottom;align=center;html=1;shape=mxgraph.aws3.internet_gateway;fillColor=#F58534;gradientColor=none;labelPosition=center;fontColor=#545B64;fontSize=13;fontStyle=1" parent="AIo1v6YMKxO04zc8rest-3" vertex="1">
          <mxGeometry x="30" y="310" width="50" height="50" as="geometry" />
        </mxCell>
        <mxCell id="AIo1v6YMKxO04zc8rest-35" style="edgeStyle=orthogonalEdgeStyle;rounded=0;orthogonalLoop=1;jettySize=auto;html=1;startArrow=classic;startFill=1;endArrow=none;endFill=0;fontColor=#545B64;fontSize=13;fontStyle=1" parent="1" source="AIo1v6YMKxO04zc8rest-20" target="AIo1v6YMKxO04zc8rest-29" edge="1">
          <mxGeometry relative="1" as="geometry" />
        </mxCell>
        <mxCell id="AIo1v6YMKxO04zc8rest-52" style="edgeStyle=orthogonalEdgeStyle;rounded=0;orthogonalLoop=1;jettySize=auto;html=1;entryX=0.5;entryY=1;entryDx=0;entryDy=0;entryPerimeter=0;fontColor=#545B64;fontSize=13;fontStyle=1;exitX=0.5;exitY=0;exitDx=0;exitDy=0;exitPerimeter=0;" parent="1" source="AIo1v6YMKxO04zc8rest-20" target="AIo1v6YMKxO04zc8rest-32" edge="1">
          <mxGeometry relative="1" as="geometry">
            <Array as="points">
              <mxPoint x="-105" y="250" />
              <mxPoint x="5" y="250" />
            </Array>
          </mxGeometry>
        </mxCell>
        <mxCell id="AIo1v6YMKxO04zc8rest-20" value="NAT" style="outlineConnect=0;dashed=0;verticalLabelPosition=bottom;verticalAlign=top;align=center;html=1;shape=mxgraph.aws3.vpc_nat_gateway;fillColor=#F58534;gradientColor=none;labelPosition=center;fontColor=#545B64;fontSize=13;fontStyle=1" parent="1" vertex="1">
          <mxGeometry x="-130" y="360" width="50" height="50" as="geometry" />
        </mxCell>
        <mxCell id="AIo1v6YMKxO04zc8rest-6" value="&lt;span style=&quot;font-size: 13px;&quot;&gt;Public Subnet&lt;br style=&quot;font-size: 13px;&quot;&gt;10.0.0.0/24&lt;/span&gt;" style="sketch=0;outlineConnect=0;gradientColor=none;html=1;whiteSpace=wrap;fontSize=13;fontStyle=1;shape=mxgraph.aws4.group;grIcon=mxgraph.aws4.group_subnet;strokeColor=#879196;fillColor=none;verticalAlign=top;align=left;spacingLeft=30;fontColor=#545B64;dashed=0;" parent="1" vertex="1">
          <mxGeometry x="80" y="-70" width="260" height="185" as="geometry" />
        </mxCell>
        <mxCell id="AIo1v6YMKxO04zc8rest-25" value="&lt;span style=&quot;font-size: 13px;&quot;&gt;Private Subnet&lt;br style=&quot;font-size: 13px;&quot;&gt;10.0.1.0/24&lt;/span&gt;" style="sketch=0;outlineConnect=0;gradientColor=none;html=1;whiteSpace=wrap;fontSize=13;fontStyle=1;shape=mxgraph.aws4.group;grIcon=mxgraph.aws4.group_subnet;strokeColor=#879196;fillColor=none;verticalAlign=top;align=left;spacingLeft=30;fontColor=#545B64;dashed=0;" parent="1" vertex="1">
          <mxGeometry x="80" y="280" width="260" height="185" as="geometry" />
        </mxCell>
        <mxCell id="AIo1v6YMKxO04zc8rest-36" style="edgeStyle=orthogonalEdgeStyle;rounded=0;orthogonalLoop=1;jettySize=auto;html=1;entryX=0;entryY=0.5;entryDx=0;entryDy=0;entryPerimeter=0;startArrow=classic;startFill=1;fontColor=#545B64;fontSize=13;fontStyle=1" parent="1" source="AIo1v6YMKxO04zc8rest-27" target="AIo1v6YMKxO04zc8rest-32" edge="1">
          <mxGeometry relative="1" as="geometry" />
        </mxCell>
        <mxCell id="AIo1v6YMKxO04zc8rest-29" value="Nat Router" style="outlineConnect=0;dashed=0;verticalLabelPosition=bottom;verticalAlign=top;align=center;html=1;shape=mxgraph.aws3.router;fillColor=#F58534;gradientColor=none;fontColor=#545B64;fontSize=13;fontStyle=1" parent="1" vertex="1">
          <mxGeometry x="-20" y="360" width="50" height="50" as="geometry" />
        </mxCell>
        <mxCell id="AIo1v6YMKxO04zc8rest-31" value="Instances&lt;br style=&quot;font-size: 13px;&quot;&gt;PrivateIP/PublicIP" style="outlineConnect=0;dashed=0;verticalLabelPosition=middle;verticalAlign=middle;align=left;html=1;shape=mxgraph.aws3.instances;fillColor=#F58534;gradientColor=none;labelPosition=right;fontColor=#545B64;fontSize=13;fontStyle=1" parent="1" vertex="1">
          <mxGeometry x="176" y="-2.5" width="50" height="50" as="geometry" />
        </mxCell>
        <mxCell id="AIo1v6YMKxO04zc8rest-49" style="edgeStyle=orthogonalEdgeStyle;rounded=0;orthogonalLoop=1;jettySize=auto;html=1;startArrow=classic;startFill=1;fontColor=#545B64;fontSize=13;fontStyle=1" parent="1" source="AIo1v6YMKxO04zc8rest-32" target="AIo1v6YMKxO04zc8rest-31" edge="1">
          <mxGeometry relative="1" as="geometry" />
        </mxCell>
        <mxCell id="AIo1v6YMKxO04zc8rest-32" value="IGW Router" style="outlineConnect=0;dashed=0;verticalLabelPosition=top;verticalAlign=bottom;align=center;html=1;shape=mxgraph.aws3.router;fillColor=#F58534;gradientColor=none;fontColor=#545B64;fontSize=13;fontStyle=1;labelPosition=center;" parent="1" vertex="1">
          <mxGeometry x="-20" y="-2.5" width="50" height="50" as="geometry" />
        </mxCell>
        <mxCell id="AIo1v6YMKxO04zc8rest-42" style="orthogonalLoop=1;jettySize=auto;html=1;entryX=0.5;entryY=1;entryDx=0;entryDy=0;entryPerimeter=0;rounded=0;startArrow=classic;startFill=1;fontColor=#545B64;fontSize=13;fontStyle=1" parent="1" source="AIo1v6YMKxO04zc8rest-41" target="AIo1v6YMKxO04zc8rest-31" edge="1">
          <mxGeometry relative="1" as="geometry">
            <mxPoint x="235" y="170" as="targetPoint" />
          </mxGeometry>
        </mxCell>
        <mxCell id="AIo1v6YMKxO04zc8rest-43" value="" style="orthogonalLoop=1;jettySize=auto;html=1;exitX=0.5;exitY=1;exitDx=0;exitDy=0;exitPerimeter=0;entryX=0.5;entryY=0;entryDx=0;entryDy=0;entryPerimeter=0;rounded=0;startArrow=classic;startFill=1;fontColor=#545B64;fontSize=13;fontStyle=1" parent="1" source="AIo1v6YMKxO04zc8rest-41" target="AIo1v6YMKxO04zc8rest-47" edge="1">
          <mxGeometry relative="1" as="geometry">
            <mxPoint x="290" y="240" as="targetPoint" />
          </mxGeometry>
        </mxCell>
        <mxCell id="AIo1v6YMKxO04zc8rest-51" style="edgeStyle=orthogonalEdgeStyle;rounded=0;orthogonalLoop=1;jettySize=auto;html=1;entryX=1;entryY=0.5;entryDx=0;entryDy=0;entryPerimeter=0;fontColor=#545B64;fontSize=13;fontStyle=1" parent="1" source="AIo1v6YMKxO04zc8rest-47" target="AIo1v6YMKxO04zc8rest-29" edge="1">
          <mxGeometry relative="1" as="geometry" />
        </mxCell>
        <mxCell id="AIo1v6YMKxO04zc8rest-47" value="Instances&lt;br style=&quot;font-size: 13px;&quot;&gt;PrivateIP" style="outlineConnect=0;dashed=0;verticalLabelPosition=middle;verticalAlign=middle;align=left;html=1;shape=mxgraph.aws3.instances;fillColor=#F58534;gradientColor=none;labelPosition=right;fontColor=#545B64;fontSize=13;fontStyle=1" parent="1" vertex="1">
          <mxGeometry x="176" y="360" width="50" height="50" as="geometry" />
        </mxCell>
        <mxCell id="AIo1v6YMKxO04zc8rest-55" style="edgeStyle=orthogonalEdgeStyle;rounded=0;orthogonalLoop=1;jettySize=auto;html=1;startArrow=classic;startFill=1;exitX=0.875;exitY=0.5;exitDx=0;exitDy=0;exitPerimeter=0;fontColor=#545B64;fontSize=13;fontStyle=1" parent="1" source="AIo1v6YMKxO04zc8rest-56" target="AIo1v6YMKxO04zc8rest-27" edge="1">
          <mxGeometry relative="1" as="geometry">
            <mxPoint x="-240" y="175" as="sourcePoint" />
          </mxGeometry>
        </mxCell>
        <mxCell id="AIo1v6YMKxO04zc8rest-56" value="Internet" style="ellipse;shape=cloud;whiteSpace=wrap;html=1;fontColor=#545B64;fontSize=13;fontStyle=1" parent="1" vertex="1">
          <mxGeometry x="-380" y="155" width="120" height="80" as="geometry" />
        </mxCell>
      </root>
    </mxGraphModel>
  </diagram>
  <diagram id="mV-r2aqWGBYWhU3ZJu5z" name="페이지-2">
    <mxGraphModel dx="1333" dy="1879" grid="1" gridSize="10" guides="1" tooltips="1" connect="1" arrows="1" fold="1" page="1" pageScale="1" pageWidth="827" pageHeight="1169" math="0" shadow="0">
      <root>
        <mxCell id="0" />
        <mxCell id="1" parent="0" />
        <mxCell id="NBzYYKpauunsHnIdSfjE-1" value="&lt;span style=&quot;font-size: 13px;&quot;&gt;Availability zone A&lt;/span&gt;" style="sketch=0;outlineConnect=0;gradientColor=none;html=1;whiteSpace=wrap;fontSize=13;fontStyle=1;shape=mxgraph.aws4.group;grIcon=mxgraph.aws4.group_availability_zone;strokeColor=#545B64;fillColor=none;verticalAlign=top;align=left;spacingLeft=30;fontColor=#545B64;dashed=1;" vertex="1" parent="1">
          <mxGeometry x="40" y="-110" width="320" height="250" as="geometry" />
        </mxCell>
        <mxCell id="NBzYYKpauunsHnIdSfjE-23" value="Private subnet" style="points=[[0,0],[0.25,0],[0.5,0],[0.75,0],[1,0],[1,0.25],[1,0.5],[1,0.75],[1,1],[0.75,1],[0.5,1],[0.25,1],[0,1],[0,0.75],[0,0.5],[0,0.25]];outlineConnect=0;gradientColor=none;html=1;whiteSpace=wrap;fontSize=12;fontStyle=0;container=1;pointerEvents=0;collapsible=0;recursiveResize=0;shape=mxgraph.aws4.group;grIcon=mxgraph.aws4.group_security_group;grStroke=0;strokeColor=#147EBA;fillColor=#E6F2F8;verticalAlign=top;align=left;spacingLeft=30;fontColor=#147EBA;dashed=0;" vertex="1" parent="1">
          <mxGeometry x="80" y="-77.5" width="240" height="185" as="geometry" />
        </mxCell>
        <mxCell id="NBzYYKpauunsHnIdSfjE-2" value="&lt;span style=&quot;font-size: 13px;&quot;&gt;Region&lt;/span&gt;" style="points=[[0,0],[0.25,0],[0.5,0],[0.75,0],[1,0],[1,0.25],[1,0.5],[1,0.75],[1,1],[0.75,1],[0.5,1],[0.25,1],[0,1],[0,0.75],[0,0.5],[0,0.25]];outlineConnect=0;gradientColor=none;html=1;whiteSpace=wrap;fontSize=13;fontStyle=1;container=1;pointerEvents=0;collapsible=0;recursiveResize=0;shape=mxgraph.aws4.group;grIcon=mxgraph.aws4.group_region;strokeColor=#147EBA;fillColor=none;verticalAlign=top;align=left;spacingLeft=30;fontColor=#545B64;dashed=1;" vertex="1" parent="1">
          <mxGeometry x="-40" y="-180" width="480" height="720" as="geometry" />
        </mxCell>
        <mxCell id="NBzYYKpauunsHnIdSfjE-3" value="&lt;span style=&quot;font-size: 13px;&quot;&gt;&lt;font style=&quot;font-size: 13px;&quot;&gt;VPC&lt;br&gt;&lt;/font&gt;&lt;/span&gt;" style="points=[[0,0],[0.25,0],[0.5,0],[0.75,0],[1,0],[1,0.25],[1,0.5],[1,0.75],[1,1],[0.75,1],[0.5,1],[0.25,1],[0,1],[0,0.75],[0,0.5],[0,0.25]];outlineConnect=0;gradientColor=none;html=1;whiteSpace=wrap;fontSize=13;fontStyle=1;container=1;pointerEvents=0;collapsible=0;recursiveResize=0;shape=mxgraph.aws4.group;grIcon=mxgraph.aws4.group_vpc;strokeColor=#248814;fillColor=none;verticalAlign=top;align=left;spacingLeft=30;fontColor=#545B64;dashed=0;" vertex="1" parent="NBzYYKpauunsHnIdSfjE-2">
          <mxGeometry x="40" y="40" width="400" height="660" as="geometry" />
        </mxCell>
        <mxCell id="NBzYYKpauunsHnIdSfjE-4" value="&lt;span style=&quot;font-size: 13px;&quot;&gt;Availability zone B&lt;/span&gt;" style="sketch=0;outlineConnect=0;gradientColor=none;html=1;whiteSpace=wrap;fontSize=13;fontStyle=1;shape=mxgraph.aws4.group;grIcon=mxgraph.aws4.group_availability_zone;strokeColor=#545B64;fillColor=none;verticalAlign=top;align=left;spacingLeft=30;fontColor=#545B64;dashed=1;" vertex="1" parent="NBzYYKpauunsHnIdSfjE-3">
          <mxGeometry x="40" y="347.5" width="320" height="250" as="geometry" />
        </mxCell>
        <mxCell id="NBzYYKpauunsHnIdSfjE-24" value="Public subnet" style="points=[[0,0],[0.25,0],[0.5,0],[0.75,0],[1,0],[1,0.25],[1,0.5],[1,0.75],[1,1],[0.75,1],[0.5,1],[0.25,1],[0,1],[0,0.75],[0,0.5],[0,0.25]];outlineConnect=0;gradientColor=none;html=1;whiteSpace=wrap;fontSize=12;fontStyle=0;container=1;pointerEvents=0;collapsible=0;recursiveResize=0;shape=mxgraph.aws4.group;grIcon=mxgraph.aws4.group_security_group;grStroke=0;strokeColor=#248814;fillColor=#E9F3E6;verticalAlign=top;align=left;spacingLeft=30;fontColor=#248814;dashed=0;" vertex="1" parent="NBzYYKpauunsHnIdSfjE-3">
          <mxGeometry x="80" y="380" width="240" height="185" as="geometry" />
        </mxCell>
        <mxCell id="NBzYYKpauunsHnIdSfjE-20" value="Instances" style="outlineConnect=0;dashed=0;verticalLabelPosition=middle;verticalAlign=middle;align=left;html=1;shape=mxgraph.aws3.instances;fillColor=#F58534;gradientColor=none;labelPosition=right;fontColor=#545B64;fontSize=13;fontStyle=1" vertex="1" parent="NBzYYKpauunsHnIdSfjE-24">
          <mxGeometry x="95" y="67.5" width="50" height="50" as="geometry" />
        </mxCell>
        <mxCell id="NBzYYKpauunsHnIdSfjE-6" value="IGW" style="outlineConnect=0;dashed=0;verticalLabelPosition=middle;verticalAlign=middle;align=right;html=1;shape=mxgraph.aws3.internet_gateway;fillColor=#F58534;gradientColor=none;labelPosition=left;fontColor=#545B64;fontSize=13;fontStyle=1" vertex="1" parent="NBzYYKpauunsHnIdSfjE-3">
          <mxGeometry x="340" y="290" width="50" height="50" as="geometry" />
        </mxCell>
        <mxCell id="NBzYYKpauunsHnIdSfjE-28" style="edgeStyle=orthogonalEdgeStyle;rounded=0;orthogonalLoop=1;jettySize=auto;html=1;entryX=0.5;entryY=0;entryDx=0;entryDy=0;entryPerimeter=0;" edge="1" parent="NBzYYKpauunsHnIdSfjE-3" source="NBzYYKpauunsHnIdSfjE-26" target="NBzYYKpauunsHnIdSfjE-6">
          <mxGeometry relative="1" as="geometry" />
        </mxCell>
        <mxCell id="NBzYYKpauunsHnIdSfjE-26" value="NAT Gateway" style="outlineConnect=0;dashed=0;verticalLabelPosition=top;verticalAlign=bottom;align=center;html=1;shape=mxgraph.aws3.vpc_nat_gateway;fillColor=#F58534;gradientColor=none;labelPosition=center;fontSize=13;fontColor=#666666;" vertex="1" parent="NBzYYKpauunsHnIdSfjE-3">
          <mxGeometry x="175" y="140" width="50" height="50" as="geometry" />
        </mxCell>
        <mxCell id="NBzYYKpauunsHnIdSfjE-27" style="edgeStyle=orthogonalEdgeStyle;rounded=0;orthogonalLoop=1;jettySize=auto;html=1;entryX=0.5;entryY=1;entryDx=0;entryDy=0;entryPerimeter=0;" edge="1" parent="NBzYYKpauunsHnIdSfjE-3" source="NBzYYKpauunsHnIdSfjE-20" target="NBzYYKpauunsHnIdSfjE-26">
          <mxGeometry relative="1" as="geometry" />
        </mxCell>
        <mxCell id="NBzYYKpauunsHnIdSfjE-29" value="" style="outlineConnect=0;dashed=0;verticalLabelPosition=bottom;verticalAlign=top;align=center;html=1;shape=mxgraph.aws3.internet_2;fillColor=#D2D3D3;gradientColor=none;" vertex="1" parent="1">
          <mxGeometry x="480" y="140" width="80" height="50" as="geometry" />
        </mxCell>
        <mxCell id="NBzYYKpauunsHnIdSfjE-30" style="edgeStyle=orthogonalEdgeStyle;rounded=0;orthogonalLoop=1;jettySize=auto;html=1;entryX=0;entryY=0.7;entryDx=0;entryDy=0;entryPerimeter=0;" edge="1" parent="1" source="NBzYYKpauunsHnIdSfjE-6" target="NBzYYKpauunsHnIdSfjE-29">
          <mxGeometry relative="1" as="geometry" />
        </mxCell>
      </root>
    </mxGraphModel>
  </diagram>
</mxfile>
